<?xml version="1.0" standalone="no"?>
<!DOCTYPE svg PUBLIC "-//W3C//DTD SVG 20010904//EN"
 "http://www.w3.org/TR/2001/REC-SVG-20010904/DTD/svg10.dtd">
<svg version="1.0" xmlns="http://www.w3.org/2000/svg"
 width="225.000000pt" height="225.000000pt" viewBox="0 0 225.000000 225.000000"
 preserveAspectRatio="xMidYMid meet">
<metadata>
Created by potrace 1.11, written by Peter Selinger 2001-2013
</metadata>
<g transform="translate(0.000000,225.000000) scale(0.100000,-0.100000)"
fill="#000000" stroke="none">
<path d="M26 2164 c-25 -24 -30 -61 -12 -88 11 -18 60 -42 177 -88 l161 -63
127 -365 c263 -755 247 -706 229 -727 -18 -21 -128 -320 -128 -350 0 -30 32
-53 73 -53 43 0 44 -2 16 -41 -26 -37 -36 -124 -19 -173 51 -156 264 -196 368
-70 58 69 67 151 27 230 -14 27 -25 50 -25 52 0 1 104 2 231 2 127 0 229 -3
227 -7 -51 -100 -56 -176 -14 -247 88 -150 305 -139 377 19 26 57 24 131 -5
188 l-23 47 41 0 c74 0 107 50 62 95 l-25 25 -581 0 c-458 0 -580 3 -579 13 0
6 13 46 28 87 l27 75 562 5 c491 4 563 7 577 21 14 14 307 905 321 978 5 23 1
35 -19 55 l-26 26 -830 0 -829 0 -32 98 c-18 53 -42 107 -54 118 -25 25 -350
154 -388 154 -15 0 -34 -7 -42 -16z m1014 -579 l0 -85 -195 0 c-107 0 -195 1
-195 3 0 1 -11 33 -25 71 -14 38 -25 75 -25 82 0 11 42 14 220 14 l220 0 0
-85z m475 0 l0 -80 -167 -3 -168 -2 0 85 0 85 168 -2 167 -3 0 -80z m562 73
c-2 -7 -15 -46 -28 -85 l-23 -73 -183 0 -183 0 0 85 0 85 211 0 c165 0 210 -3
206 -12z m-1037 -393 l0 -95 -137 0 -138 0 -27 78 c-15 42 -30 85 -33 95 -7
16 5 17 164 17 l171 0 0 -95z m475 0 l0 -90 -167 -3 -168 -2 0 95 0 95 168 -2
167 -3 0 -90z m465 93 c0 -2 -13 -43 -29 -93 l-28 -90 -131 -3 -132 -3 0 96 0
95 160 0 c88 0 160 -1 160 -2z m-940 -408 l0 -81 -87 3 -86 3 -24 69 c-12 39
-23 74 -23 78 0 4 50 8 110 8 l110 0 0 -80z m475 0 l0 -75 -167 -3 -168 -2 0
80 0 80 168 -2 167 -3 0 -75z m355 68 c0 -6 -10 -42 -22 -80 l-22 -68 -83 0
-83 0 0 80 0 80 105 0 c74 0 105 -3 105 -12z m-943 -673 c53 -61 7 -155 -75
-155 -33 0 -45 6 -66 31 -37 43 -35 91 4 131 28 27 36 30 73 25 28 -4 49 -14
64 -32z m782 8 c66 -61 30 -163 -57 -163 -48 0 -88 29 -97 71 -20 92 86 155
154 92z"/>
</g>
</svg>
